<svg xmlns="http://www.w3.org/2000/svg" viewBox="0 0 372.39 484.51"><defs><style>.cls-1{fill:#abb8c3}.cls-2{fill:#e1e7ed}.cls-3{fill:#c9d4dd}.cls-4{fill:#e4eaef}.cls-5{fill:#91a0ac}</style></defs><g id="Слой_2" data-name="Слой 2"><g id="Слой_1-2" data-name="Слой 1"><path d="M182.89 260.76c-.67 1.24-1.38 2.52-2 3.79q-6.66 12.16-14.06 24.44c-.47.78-.94 1.53-1.4 2.31q-4.8 7.8-9.91 15.62c-.67 1-1.37 2.06-2.07 3.12a578.233 578.233 0 0 1-17.47 24.85c-.17.25-.38.51-.57.76-.45.62-.89 1.22-1.36 1.82-.17.25-.38.51-.55.76h-6.57c.23-.29.45-.56.66-.88.47-.57.89-1.14 1.33-1.71.52-.68 1-1.37 1.52-2.05q8.65-11.46 16.48-23.13c.7-1 1.41-2.07 2.1-3.11q5.69-8.61 11.05-17.26c.46-.78 1-1.56 1.43-2.34q7.2-11.85 13.72-23.65l2.08-3.8c1.77.17 3.7.33 5.59.46zm23.16-47.21l-1.79 4-5.85.23c.63-1.35 1.25-2.68 1.82-4 1.92-.1 3.87-.18 5.82-.23z" class="cls-1"/><path d="M372.39 239.73a3.4 3.4 0 0 0 0-.71 6.1 6.1 0 0 0-.13-.7c-5.56-26.2-58-47.21-124.38-50-1.85-.08-3.72-.15-5.59-.21l-3.92-.07h-.45c-1.79 0-3.59-.06-5.41-.06-5.32 0-10.55.11-15.72.34-1.92.08-3.82.18-5.72.29-63.32 3.82-112.68 24.25-118.25 49.6a5.63 5.63 0 0 0-.18.91 2.81 2.81 0 0 0-.05.65 7.18 7.18 0 0 0 2.39 5 12.86 12.86 0 0 1-.1-1.77 21.43 21.43 0 0 1 3.06-10.71c13.7-9.28 52.59-16.35 102.37-18.5 1.92-.08 3.87-.16 5.82-.21q11.82-.44 24.31-.47c3.85-7.64 7.41-15.13 10.68-22.41 1.9 0 3.77.08 5.64.16q-4.92 10.88-10.53 22.28c63.12.28 114.64 8.16 130.86 19.15a21.34 21.34 0 0 1 3.02 10.71 12.83 12.83 0 0 1-.11 1.77 7.18 7.18 0 0 0 2.39-5.04z" class="cls-2"/><path d="M336.11 225.77v27.91c20.79-4.36 32.39-9.64 32.39-14s-11.6-9.55-32.39-13.91zm-239.7 13.96c0 4.15 10.71 9.17 30 13.43v-26.87c-19.29 4.26-30 9.28-30 13.44zm107.85-22.2l-5.85.23c-27.84 1.33-50.95 4.21-68.08 7.69V254a412.26 412.26 0 0 0 46.87 6.31c1.87.16 3.77.32 5.69.45q9.75.69 20.43 1.14a653.69 653.69 0 0 0 25.06-44.89q-12.55-.01-24.12.52zm29.95-.53a639.377 639.377 0 0 1-25 45.13q11.16.34 23.21.36 14.79 0 28.26-.55v-44.41c-8.45-.34-17.26-.52-26.49-.55zm30.41 44.77c27.4-1.22 50.33-3.95 67.59-7.31V225c-17.26-3.36-40.19-6.09-67.59-7.31zM214 380.42l3.28-2.46-6.48.58-55.34 5-.57.05.23 2.59 1-.09a8.94 8.94 0 0 0 1.63 2.78 9.9 9.9 0 0 0 6.55 3.13h-.13l.32 2.58 6.2-.78 30.54-3.8zm6.37 18.3l-.27-2.29v-.29L177.42 401l-.89.1.3 2.58 1.26-.14a9.5 9.5 0 0 1 .11 1.26v29c-2.15 12.81 8.84 14.88 9.31 15a100.48 100.48 0 0 0 19.13 0 11.62 11.62 0 0 0 7.66-4 14 14 0 0 0 3.32-9.31v-28.1a19.29 19.29 0 0 1 1.16-8.49z" class="cls-3"/><path d="M147.71 339.74q-15.25 18.38-32.76 36.63v-15.04q9.63-11.36 18.43-23h8a13 13 0 0 1 6.33 1.41z" class="cls-2"/><path d="M133.38 338.29q-8.8 11.66-18.43 23v-8.11q6.12-7.41 11.86-14.92h6.58z" class="cls-2"/><path d="M126.81 338.29q-5.75 7.52-11.86 14.92v-4.89c1.19-9.68 10.26-10 10.62-10z" class="cls-2"/><path d="M353.93 338.88a12.74 12.74 0 0 0-10.74-6.44c-10.34-.54-62.56-.17-78.32 0h-.25a13.57 13.57 0 0 0-3.9.66l-.24.08a11.19 11.19 0 0 0-1.14.44 13.92 13.92 0 0 0-3.59 2.26c-4.85 4.18-10.56 10.76-10.19 18.41.65 13.09 0 24.44 0 24.61a4.27 4.27 0 0 1 0 .83c0 2.48-.9 9.9-10.64 13.53l-.3.11h-.32c-.07 0-6.67-.79-10.78 3.07-2.53 2.37-3.65 6-3.35 10.94v28.15a16.59 16.59 0 0 1-4 11 14.18 14.18 0 0 1-9.32 4.87 102 102 0 0 1-19.78 0c-.21 0-14.1-2.57-11.54-17.76v-28.85c0-.37 0-8.64-11.44-10.19a12.62 12.62 0 0 1-8.35-4c-2.58-2.95-3.58-7.19-3-12.58v-31.28a10.09 10.09 0 0 0-1.36-3.43 650.303 650.303 0 0 1-36.55 40.53v34.06a39.85 39.85 0 0 0 5.31 19.85c9.51 16.49 32.39 44.16 78.74 44.16 48 0 75.4-1.9 87.44-3a46.68 46.68 0 0 0 13.38-3.28c16.75-6.89 55.78-28.82 56.45-83.39v-44.5a17 17 0 0 0-2.22-8.86z" class="cls-4"/><path d="M170.69 393.82a13 13 0 0 1 6.73 7.2l42.65-4.88v.29a12.27 12.27 0 0 1 1.7-2c4.49-4.19 11-3.91 12.55-3.77C243.92 387 243 379.3 243 379s.63-11.61 0-24.6c-.43-8.69 5.79-16 11.08-20.5.17-.15.34-.29.52-.42-5.55-.13-13.58-.23-17.32.16a7.44 7.44 0 0 0-4.74 2.83 13.8 13.8 0 0 0-3.19 9.1v34.87H214L201.23 390z" class="cls-4"/><path d="M155.45 378.15a20.4 20.4 0 0 0 0 5.37l55.34-5c.22-11.14.49-32.17 0-35.63a8.15 8.15 0 0 0-3-5.38h-51.55c-1 1.25-2 2.48-3.06 3.73a13.56 13.56 0 0 1 2.26 5.31z" class="cls-4"/><path d="M370 244.74a7.18 7.18 0 0 0 2.39-5 3.4 3.4 0 0 0 0-.71 6.1 6.1 0 0 0-.13-.7c-.54-2.1-2.31-4.13-5.17-6.06-16.22-11-67.74-18.87-130.86-19.15h-5.8q-12.48 0-24.31.47c-2 0-3.9.13-5.82.21-49.78 2.15-88.67 9.22-102.37 18.5-2.8 1.88-4.55 3.85-5.12 5.91a5.63 5.63 0 0 0-.18.91 2.81 2.81 0 0 0-.05.65 7.18 7.18 0 0 0 2.39 5c4.58 4.79 15.68 9.07 31.53 12.56v52.1c-7.23.87-12.11 1.81-13.79 2.77a2.19 2.19 0 0 0-1.12 1.31 3.79 3.79 0 0 0 .78 3.68c2.58 2.89 10.15 2.52 14.13 2.1v16.43h-.9c-.12 0-11.76.38-13.18 12.41v69.8A42.46 42.46 0 0 0 118 439c9.79 17 33.33 45.46 81 45.46 48.13 0 75.6-1.91 87.68-3A49.1 49.1 0 0 0 300.8 478c17.23-7.09 57.37-29.64 58.06-85.77v-44.49a19.58 19.58 0 0 0-2.71-10.21 15.41 15.41 0 0 0-12.82-7.69c-1.56-.08-4.05-.14-7.22-.18v-10.28c8.59-.29 13.08-1.55 13.37-3.74.27-2-1.91-3.92-13.37-7.1v-50.72c17.13-3.59 29.08-8.06 33.89-13.08zm-33.89-16.59l2.73-1.79c19.07 4.24 29.66 9.24 29.66 13.37 0 4.31-11.6 9.59-32.39 14zm-71.49-6.75l5.66-3.44a474.86 474.86 0 0 1 58.07 6.31l3.86 3.42v26.77c-17.26 3.36-40.19 6.09-67.59 7.31zm0 44.29c26.25-1.14 49.49-3.64 67.59-7.12v49c-12.05-2.41-37.8-3.5-67.59-3.65zm0 40.85c29.66 0 55.38 1 67.59 3.7v6.6h-.28l-67.31 3.81zm-134.29-75.59l5.85-6.62a486.55 486.55 0 0 1 62.23-6.57l5.85-.23q11.58-.48 24.12-.52h5.85c7.64 0 15 .16 22.08.39l4.41 3.63v40.92q-13.45.55-28.26.55-12 0-23.21-.36-3-.09-5.93-.21-10.68-.43-20.43-1.14c-1.92-.13-3.82-.29-5.69-.45a412.26 412.26 0 0 1-46.87-6.34zM243 354.38c.64 13 0 24.23 0 24.6s.94 8-8.63 11.71c-1.57-.14-8.06-.42-12.55 3.77a12.27 12.27 0 0 0-1.7 2 13 13 0 0 0-1.32 2.47 19.29 19.29 0 0 0-1.16 8.49v28.07a14 14 0 0 1-3.32 9.31 11.62 11.62 0 0 1-7.66 4 100.48 100.48 0 0 1-19.13 0c-.47-.09-11.46-2.16-9.31-15v-29a9.5 9.5 0 0 0-.11-1.26 12.91 12.91 0 0 0-7.4-9.74 20.79 20.79 0 0 0-6.33-1.81h-.06a9.9 9.9 0 0 1-6.55-3.15 8.94 8.94 0 0 1-1.63-2.78 11.62 11.62 0 0 1-.65-2.55 20.4 20.4 0 0 1 0-5.37v-31.57a13.56 13.56 0 0 0-2.26-5.31 12.09 12.09 0 0 0-3.81-3.57l-.27-.16h58.69a8.15 8.15 0 0 1 3 5.38c.49 3.46.22 24.49 0 35.63v1.88h18.55v-34.87a13.8 13.8 0 0 1 3.19-9.1 7.44 7.44 0 0 1 4.74-2.83c3.74-.39 11.77-.29 17.32-.16-.18.13-.35.27-.52.42-5.36 4.55-11.58 11.81-11.12 20.5zM237 331a9.91 9.91 0 0 0-6.44 3.71 16.45 16.45 0 0 0-3.82 10.8v32.27h-13.3c.12-6.15.55-31.16 0-35.27a10.57 10.57 0 0 0-4.51-7.43l-.31-.19h-18v-26.74c22.63-.92 47.42-1.55 70.18-1.61v23.82a14.88 14.88 0 0 0-1.85.62c-4.6-.15-16.86-.48-21.95.02zm-46.44-25.83v-38.48l2.43-1.36c2.64.14 5.28.27 8 .39 2 .08 4 .16 6 .21 8.26.28 16.79.44 25.52.44 9.7 0 19.16-.18 28.26-.55v38.12c-22.77-.05-47.54.43-70.23 1.27zm-60.21 3.74v-50.78a398.06 398.06 0 0 0 44.79 6c1.87.15 3.77.31 5.69.44 1 .08 1.94.14 2.91.21l2.88 1.91v38.69l-6 .25c-.72 1-1.48 2-2.19 3.06l8.23-.37v26.62h-56.33v-23.1c10.34-1 24.81-2 41.37-2.83.78-1 1.52-2.06 2.29-3.09-17.32.82-32.6 1.86-43.66 3.03zm-33.94-69.18c0-3.9 9.4-8.55 26.47-12.62l3.55 4.09v22c-19.31-4.3-30.02-9.32-30.02-13.47zm17.83 75.69a1.11 1.11 0 0 1-.26-1c1.11-.67 5.54-1.41 12.45-2.16v4.42c-4.68.47-10.7.41-12.19-1.26zm228.95 17a12.74 12.74 0 0 1 10.74 6.44 17 17 0 0 1 2.33 8.86v44.47c-.67 54.57-39.7 76.5-56.45 83.39a46.68 46.68 0 0 1-13.38 3.28c-12 1.13-39.41 3-87.44 3-46.35 0-69.23-27.67-78.74-44.16a39.85 39.85 0 0 1-5.31-19.85v-69.52c1.19-9.68 10.26-10 10.62-10h15.81a13 13 0 0 1 6.34 1.45 9.71 9.71 0 0 1 3.78 3.57 10.09 10.09 0 0 1 1.36 3.43V378c-.63 5.39.37 9.63 3 12.58a12.62 12.62 0 0 0 8.35 4c11.41 1.55 11.44 9.82 11.44 10.19v28.83c-2.56 15.19 11.33 17.72 11.54 17.76a102 102 0 0 0 19.78 0 14.18 14.18 0 0 0 9.32-4.87 16.59 16.59 0 0 0 4-11v-28.18c-.3-4.89.82-8.57 3.35-10.94 4.11-3.86 10.71-3.08 10.78-3.07h.32l.3-.11c9.74-3.63 10.64-11 10.64-13.53a4.27 4.27 0 0 0 0-.83c0-.17.65-11.52 0-24.61-.37-7.65 5.34-14.23 10.19-18.41a13.92 13.92 0 0 1 3.59-2.26 11.19 11.19 0 0 1 1.14-.44l.24-.08a13.57 13.57 0 0 1 3.9-.66h.25c15.65-.1 67.87-.47 78.21.07zm-78.34-2.64h-.23v-6.55l67.38-3.79h.21v10.17c-19.34-.17-54.84.09-67.36.19zm81.83-14.52c-1.31.69-5.54 1.26-10.57 1.47v-5.5c7.62 2.17 9.89 3.49 10.57 4.05z" class="cls-5"/><path d="M293.45 0c0 .5-1.72 31.69-13.65 79.59L248.69 91c13.85-52.87 17.93-89.31 18-89.86L261.5.63c-.08.77-8.86 79-44.63 173l-14.38-9.61-.64-.43-8.25-5.5-.18-.12-9.17-6.12-.82-.55-10.72-7.16-.95-.63-11.76-7.8-.32-.22-17.08-11.39-1.18-.79-16-10.71-1.26-.84-20-13.34-1.61-1.07L80.6 82.71l-1.18-.78L46 59.59l-1.19-.8-25.74-17.15-1.29-.86-11.13-7.43-1.44 2.17L16 42.69 3.06 56.21 4.94 58l11.84-12.41 3.35 41.26-1 1.12-17.27-7.79L.8 82.55 17.36 90 0 109.78l2 1.72 17.84-20.37.66.3L24 134l-22.5-5.41-.61 2.53 23.29 5.59.81.19 30.35 7.28 1.16.29 22.07 5.29 1.48.36 26.53 6.36 1.54.37 22.12 5.31.63.15 14 3.37.84.2 15.54 3.73.74.18 11.47 2.75.63.15 11.2 2.69 1.14.27 11.74 2.82h.17l10.2 2.45 1.32.32 3.65.87c-.84 2.11-1.69 4.24-2.58 6.4 1.9-.11 3.8-.21 5.72-.29l1.95-4.89 19.35 4.67.58.14-.21-.14-17-11.37c.15-.39.28-.75.44-1.14 10.66-28 18.92-54.64 25.32-78.27l31.19-11.49c-3 11.5-6.56 23.89-10.81 37s-9.19 26.89-14.92 41.21q-4.68 11.66-10.27 24.17c-.39.86-.78 1.72-1.17 2.6-3.27 7.28-6.83 14.77-10.68 22.41-.63 1.3-1.3 2.6-2 3.93a653.69 653.69 0 0 1-25.06 44.89c-.78 1.27-1.56 2.55-2.36 3.82q-5 8.07-10.42 16.3-1.92 2.88-3.9 5.8c-.91 1.4-1.88 2.78-2.86 4.18-.52.81-1.07 1.59-1.62 2.37q-4 5.76-8.16 11.54c-.77 1-1.51 2.06-2.29 3.09q-9.48 12.9-20 25.89c-.7.88-1.4 1.73-2.12 2.59a.27.27 0 0 1-.14.16c-.55.68-1.08 1.37-1.65 2q-15.25 18.38-32.76 36.63c-.86.88-1.7 1.78-2.59 2.67a673.73 673.73 0 0 1-70.26 62.72l-14.38-.39a454 454 0 0 0 84.64-77v-8c-29.22 34.81-64.28 67.12-106.21 93l2.73 4.42c3.9-2.42 7.71-4.88 11.48-7.4l15.19.41q-13.38 10.14-27.76 20L10.7 471q17.23-11.78 33.09-24H44v-.19a680.2 680.2 0 0 0 68.29-60.35c.89-.88 1.74-1.77 2.6-2.65 13.16-13.41 25.32-27 36.55-40.53.6-.7 1.14-1.37 1.69-2.05 1.07-1.25 2.07-2.48 3.06-3.73.73-.86 1.42-1.73 2.09-2.59q10.58-13.14 20.05-26.23c.71-1 1.47-2 2.19-3.06 2.06-2.88 4.06-5.73 6-8.59.44-.63.88-1.22 1.27-1.85.57-.8 1.12-1.61 1.64-2.39.36-.49.67-1 1-1.46 5.82-8.55 11.25-17 16.4-25.39.78-1.28 1.56-2.55 2.31-3.82a673.336 673.336 0 0 0 25-45.13c.65-1.3 1.3-2.57 1.93-3.87q5.63-11.39 10.53-22.28c.36-.86.75-1.72 1.12-2.55q5.17-11.7 9.56-22.64C294.72 72.4 298.6 1 298.65.26zM78.27 114.6l-20.09-9.05L78 86.81zm-.79-30.84L55.62 104.4l-3.53-1.59L46.44 63zm-23.9 22.57l-.87.82-.19-1.29zM19.33 44.95L43 60.76 22.51 84.13zM23 89.69l-.16-1.94L43.92 63.7l5.37 37.85L23 89.69zm.24 3l26.51 11.94.67 4.74L26.4 132zm4 42.12l23.59-22.28 4.1 28.92zm25.9-24.47l3-2.82 22.16 10v2.77l-20.92 19.77zm5.61 32l19.6-18.54.2 23.28zm135.18 24.39l-5.69-2.56 3.89-2.35zm-10.74-4.84l-6.19-2.8 5.14-3.67zm-11.62-5.24l-8.22-3.7 7.13-5.25zM159.15 151l-9.3-4.19 8.05-6.56zm-16.87-7.6l-12.87-5.8 11-9.92zm-2.85-18.33l-10.7 9.65-2.83-18.68zm-13.11 11.14L107.91 128l15.31-12.18zm-22.38-10.08l-19-8.58 16.89-16zM80.62 85.86l20 13.32-18.28 17.26-1.45-.65zm.31 35.5l1.93-1.82 20.1 9.06-21.81 17.34zm1.72 26.7l21.7-17.26 2 23zm23.87-22.31l-2.1-24L122 113.46zm.4 4.61l17.8 8-15.85 14.3zm3.55 24.38l16.41-14.81 3 19.45zm19.14-14.15l13 5.87.32 2.65-10.73 8.75zm3.81 19.65l9.9-8.07 1.28 10.76zm11.63-15.55L143 127.5l14.56 9.71-10.36 8.45-2.15-1zm.66 5.54l1.89-1.54 10.64 4.79-11.17 8.22zm2.8 13.63l11.18-8.22 1.3 11.22zm13.24-13l-1.37-11.79 9.12 6.09zm.52 4.41l9.55 4.3-8.36 6zm2.58 12.49l7.44-5.32.89 7.31zm8.24-20.21l8 5.37-6.79 4.86zm1.63 13.33l8 3.58-7 4.24zm2.6 9.87l6.66-4 .94 5.86zm8.61-8.26l-1.14-7.13 6.15 4.1zm.59 3.71l6.16 2.78-5.22 3.07zm3.21 7.52l5.58-3.28 1.86 5.07zm7-7.1l-1.61-4.39 4.25 2.84zm1.65 2l2.78-1.64 2.06 3.82zm.17 2.93l4.46 2-3.21 1.43zm3.81 5.14l3.26-1.45 1.38 2.57zm4.4-4.8l-1.63-3 3.38 2.25zm7.82 7.74l-.28-.07.37-.14a.56.56 0 0 0-.13.29zm-4.35-1.31l-1.08-2 2.9 1.31zm-.86-4.75l1.68-.75 4.89 3.26v.08l-.43.16z" class="cls-1"/></g></g></svg>