<svg xmlns="http://www.w3.org/2000/svg" viewBox="0 0 216.85 414.01"><defs><style>.cls-1{fill:#91a0ac}.cls-2{fill:#e4eaef}.cls-3{fill:#c9d4dd}</style></defs><g id="Слой_2" data-name="Слой 2"><g id="Слой_1-2" data-name="Слой 1"><path d="M12.22 378.43v13.39L56.7 414l29.47-8.42a2.3 2.3 0 0 0 1.67-2.21v-4.94L173 374.12l-1.21.92 7.92 2.82a5.56 5.56 0 0 0 3.21.16l4.34-1.08 29.62-8.41v-12.35z" class="cls-1"/><path d="M12.22 378.43l153.47-40.04 51.15 17.79L56.7 400.67l-44.48-22.24z" class="cls-2"/><path d="M37.72 330.68l-1.18-12.51 2.39-.22a1.1 1.1 0 0 0 1-1.19l-.09-.94a1.1 1.1 0 0 1-.2-2.18l-.09-.94a1.1 1.1 0 1 1-.2-2.18l-.09-.94a1.1 1.1 0 1 1-.2-2.18l-.09-.94a1.1 1.1 0 1 1-.2-2.18l-.09-.94a1.1 1.1 0 0 1-.2-2.18l-.09-.94a1.1 1.1 0 1 1-.2-2.18l-.09-.94a1.1 1.1 0 0 0-1.19-1l-2.45.22L6.64 0 0 .62l27.84 296.32-2.11.19a1.1 1.1 0 0 0-1 1.19l.09.94a1.1 1.1 0 0 1 .2 2.18l.09.94a1.1 1.1 0 1 1 .2 2.18l.09.94a1.1 1.1 0 0 1 .2 2.18l.09.94a1.1 1.1 0 0 1 .2 2.18l.09.94a1.1 1.1 0 1 1 .2 2.18l.09.94a1.1 1.1 0 0 1 .2 2.18l.09.94a1.1 1.1 0 0 0 1.19 1l2.17-.2 1.16 12.4c-10.72 23.78-8.48 41.67-7.09 48a2.32 2.32 0 0 0 3 1.71l1.94-.64a2.32 2.32 0 0 0 1.54-2.69c-1.06-5-2.85-19.13 4.43-38.25 6.45 11.87 20.29 38.79 22.73 55.43a1.87 1.87 0 0 0 2 1.61l3-.3a1.84 1.84 0 0 0 1.61-2.05c-3.12-21.74-23.45-57.93-26.52-63.32zm146.66-31.29l-.06-.16-.66-8.13 2.25-.21a1.1 1.1 0 0 0 1-1.19l-.09-.94a1.1 1.1 0 1 1-.2-2.18l-.09-.94a1.1 1.1 0 1 1-.2-2.18l-.09-.94a1.1 1.1 0 0 1-.2-2.18l-.09-.94a1.1 1.1 0 1 1-.2-2.18l-.09-.94a1.1 1.1 0 0 1-.2-2.18l-.09-.94a1.1 1.1 0 1 1-.2-2.18l-.09-.94a1.1 1.1 0 0 0-1.19-1l-2 .19L160.12 0l-6.65.54 21.78 269.26-2.53.23a1.1 1.1 0 0 0-1 1.19l.09.94a1.1 1.1 0 1 1 .2 2.18l.09.94a1.1 1.1 0 0 1 .2 2.18l.09.94a1.1 1.1 0 1 1 .2 2.18l.09.94a1.1 1.1 0 1 1 .2 2.18l.09.94a1.1 1.1 0 0 1 .2 2.18l.09.94a1.1 1.1 0 0 1 .2 2.18l.09.94a1.1 1.1 0 0 0 1.19 1l2.31-.21.66 8.13c-4.78 7.46-13.31 32.09-16.76 42.35a1.91 1.91 0 0 0 1.22 2.42l2.69.9a1.91 1.91 0 0 0 2.42-1.2c4.6-13.68 9.94-28.11 13.41-35.87 6.15 16.58 13.81 38.76 14.93 46.22a1.81 1.81 0 0 0 1.8 1.52h3a1.83 1.83 0 0 0 1.81-2.1c-1.8-12.27-16.13-50.11-17.85-54.65z" class="cls-1"/><path d="M12.23 384.86l44.45 22.23 160.17-44.49v-6.42l-160.17 44.5-44.45-22.23v6.41z" class="cls-3"/></g></g></svg>