<svg xmlns="http://www.w3.org/2000/svg" viewBox="0 0 252.84 457.31"><defs><style>.cls-1{fill:#91a0ac}.cls-2{fill:#c9d4dd}.cls-3{fill:#e4eaef}</style></defs><g id="Слой_2" data-name="Слой 2"><g id="Слой_1-2" data-name="Слой 1"><path d="M196.31 367.06h-2.5a58.8 58.8 0 0 1-22-4.09 55.74 55.74 0 0 1-7.71-3.78c3.86 1.13 8.09 2.25 12.23 3.27h.06c2.46.61 4.88 1.19 7.18 1.72 5.36 1.31 9.99 2.3 12.74 2.88zm40.22-11.38q-18.27 9-34.34 10.92c7.24-2 16.68-4.82 24.81-7.52 3.53-1.17 6.81-2.32 9.53-3.4z" class="cls-1"/><path d="M209.47 419.61c-10.3 8.5-36 21.35-36.19 21.48-45.95 18.15-83.22 18.78-110.76 1.91-26.31-16.13-40.75-45.86-49-77.07 6.23 14.86 13.68 22.94 22.22 24a16.89 16.89 0 0 0 2 .13c13.87 0 26.27-17.64 31.4-26 2.33 22.56 9.92 38.67 22.58 48a37.89 37.89 0 0 0 21.48 7.63h.4c.63-.06 58.66-.4 95.87-.08z" class="cls-2"/><path d="M68.56 356.07a.27.27 0 0 1 0-.13v-.08c-.57-12.38-1.59-25.93-3.26-40.2l-43.3-1.4-6.15-.26-3.45-.11-3.48-.12-2.69-.09-1.91-.06c1.06 9.9 2.48 20.44 4.47 31.12 7.09 27.16 16.22 41.6 27.21 43 14.86 1.89 29.17-21.12 32.82-27.48-.11-1.29-.19-2.61-.26-3.94zm175.79 26.48v-.27c0-.22.12-10.77-1.32-27.19-.06-.76-.13-1.52-.21-2.31v-.37q-3.15 1.74-6.22 3.26-18.27 9-34.34 10.92-3 .36-5.88.46h-2.5a58.8 58.8 0 0 1-22-4.09 55.74 55.74 0 0 1-7.71-3.78c-12.8-7.52-21.1-19.09-26-28.11a83.93 83.93 0 0 1-5.61-12.51c-.11-.34-.2-.6-.25-.75l-3-.08-55.42-1.82c1.61 14 2.61 27.35 3.16 39.54.09 1.84.21 3.64.36 5.36.09 1 .17 2 .3 3 0 .61.13 1.19.21 1.78 5.75 46 34.26 45.63 35.54 45.56h8.33c6 0 14.92-.08 25.16-.08h.15c20.53-.07 46.41-.07 65.69.12 10.64.11 18.65-2.69 24-8.27 8.04-8.39 7.56-20.26 7.56-20.37z" class="cls-3"/><path d="M252.83 382.3c0-3.1.34-46.82-13.59-96.39-11.1-39.51-28.25-71.34-50.64-94.52a8.46 8.46 0 0 0-9.6-13.23l-70.21-80.24a8.46 8.46 0 0 0-5.44-13.33L103.88 0h-2.12l-.53 84.5a8.46 8.46 0 0 0-5.52 14.18L64.8 136.91c-20.9-2.91-35.8-1.06-44.45 5.57-6.4 4.9-7.7 11.37-7.44 14.4L13 158l.6.89v.07C12.1 165.64.12 219.63 0 274.7v.06c0 2.24 0 4.47.06 6.71v.45c.15 7.78.53 15.54 1.25 23.15 1 10.46 2.29 21.84 4.24 33.52.36 2.14.72 4.29 1.15 6.43 7.16 38.75 21.81 79.48 54.7 99.69q20.43 12.59 47.6 12.6c19.28 0 41-4.77 65.16-14.29 1.29-.64 29.28-14.65 38.48-23.39 13 .11 23.17-3.54 30.23-10.87 10.13-10.48 10.02-24.76 9.96-26.46zM231 288a367.31 367.31 0 0 1 11.57 62.23c-22.08 12.25-41.85 16.94-59 14a55.61 55.61 0 0 1-7.18-1.72h-.06c-1.27-.4-2.53-.85-3.77-1.34-24-9.55-34.84-34.1-37.68-41.75a175.85 175.85 0 0 1-4-45.07 67.36 67.36 0 0 1 .92-8.86h.1a6.23 6.23 0 0 1 .05-.91c6.27-34.75 37.29-64.83 44.85-71.67a8.45 8.45 0 0 0 2.58 1.34C207 221.2 222.45 257.63 231 288zM36.73 182.21c-1.88-3.8-3.85-7.54-5.91-11.25a6.35 6.35 0 1 1 5.91 11.25zm5.67-5.7a8.44 8.44 0 0 0-2.26-5.74L61 145c16 2 38.56 7.35 70.24 18.77a128.62 128.62 0 0 1 16.47 7.23c-3.63 18.13-15.08 75.72-17.36 91a71.2 71.2 0 0 0-1.55 12.26 180.71 180.71 0 0 0 3.09 41.45l-3.41-.12-54.87-1.78c-.81-6.66-1.74-13.45-2.84-20.36-5.69-35.53-15.73-74-33.1-109.34a8.48 8.48 0 0 0 4.73-7.6zM174 189.16a8.47 8.47 0 0 0 1.25 2.18c-6.59 6-29.23 28.06-40.32 55.58 3.57-19.42 9.65-50.37 14.57-75a133 133 0 0 1 24.5 17.24zm7.92-9.4a6.35 6.35 0 0 1 5.13 10.1c-2.57-2.61-5.23-5.1-7.94-7.47l-1.29-1.12a6.33 6.33 0 0 1 4.18-1.52zM95.58 92.94a6.36 6.36 0 1 1 6.36 6.36 6.37 6.37 0 0 1-6.36-6.36zm1.75 7.11a8.43 8.43 0 0 0 9.83-.44l69.78 79.69a8.6 8.6 0 0 0-.7.58c-2.78-2.31-5.64-4.5-8.55-6.55a138.37 138.37 0 0 0-33.56-17.6q-39.8-14.34-66.88-18.46zM25.5 149.23c4.28-3.27 13.49-6.58 33-4.54l-20 24.71a8.43 8.43 0 0 0-8.74-.29 267.36 267.36 0 0 0-8.35-13.74 9.94 9.94 0 0 1 4.09-6.14zm-10.24 12.23c4.62 7.19 8.84 14.6 12.72 22.17-1.47 2.8-18.37 35.65-25.31 71.31a601.08 601.08 0 0 1 12.59-93.48zM3.43 304.95c-.93-9.86-1.31-20-1.29-30a.07.07 0 0 1 0-.09c2.64-38.82 22.77-80.39 27-88.8 17.36 34.79 27.41 72.79 33.07 108 1.09 6.62 2 13.15 2.76 19.53l-43-1.42-6.59-.21-3.38-.16-3.27-.11-2.73-.08-1.89-.06c-.26-2.23-.47-4.43-.68-6.6zm.89 8.72l1.91.06 2.69.09 3.48.12 3.45.11 6.15.21 43.28 1.4c1.67 14.27 2.69 27.82 3.26 40.2v.08a.27.27 0 0 0 0 .13v.32c.07 1.33.15 2.65.26 3.94-3.65 6.36-18 29.37-32.82 27.48-11-1.42-20.12-15.86-27.21-43-1.97-10.7-3.39-21.24-4.45-31.14zm169 127.42c-46 18.15-83.22 18.78-110.76 1.87-26.31-16.14-40.75-45.86-49-77.07 6.23 14.86 13.68 22.94 22.22 24a18 18 0 0 0 2 .13c13.86 0 26.26-17.64 31.4-26 2.33 22.56 9.92 38.67 22.58 48a37.84 37.84 0 0 0 21.47 7.63h.41c.61 0 58.64-.34 95.85 0-10.32 8.46-36 21.35-36.21 21.44zm63.52-38.21c-5.39 5.58-13.4 8.38-24 8.27-19.28-.19-45.16-.19-65.69-.12H147c-10.24 0-19.12 0-25.16.08h-8.33c-1.28.07-29.79.43-35.54-45.56-.08-.59-.17-1.17-.21-1.78-.13-1-.21-2-.3-3-.15-1.72-.27-3.52-.36-5.36-.55-12.19-1.55-25.51-3.16-39.54l55.42 1.82 3 .08c.05.15.14.41.25.75a83.93 83.93 0 0 0 5.61 12.51c4.92 9 13.22 20.59 26 28.11a55.74 55.74 0 0 0 7.71 3.78 58.8 58.8 0 0 0 22 4.09h2.5q2.89-.11 5.88-.46 16.05-1.89 34.34-10.92 3.07-1.52 6.22-3.26v.37c.08.79.15 1.55.21 2.31 1.44 16.42 1.32 27 1.32 27.19v.27c-.05.15.43 12.02-7.6 20.37z" class="cls-1"/></g></g></svg>