<svg version="1" xmlns="http://www.w3.org/2000/svg" width="194.667" height="194.667" viewBox="0 0 146.000000 146.000000"><path d="M59.5 4.2c-15.1 1.4-29 8.1-40 19.2-24.8 25.1-24.9 67.2-.2 94.2 21.9 23.9 55.3 32.3 79.6 19.9 2.7-1.3 5.2-2.9 5.6-3.5.3-.6 2.2.1 4.6 1.6 6.9 4.3 8.1 4.5 13.7 1.9 2.7-1.3 6.8-4 9.1-6l4-3.7v-11.3c0-10.1.3-12 2.5-16.3C143.1 91 145 81.8 145 69c0-11.2-1.9-19.6-7.1-30.6-3.5-7.3-12.1-18.7-16.9-22.4-1.8-1.4-3.8-3-4.4-3.6-1.5-1.4-9.4-6.4-10.2-6.4-.3 0 .9 1.2 2.8 2.7 8.1 6.8 15.9 16.9 20.3 26.6 3.8 8.1 5.6 16.3 6.2 27.4l.6 10.3h-2.7c-2.5 0-2.6-.3-2.7-5.3-.2-17.4-6.4-32-19-44.6C98 9 79.2 2.3 59.5 4.2zm28.8 28.7c7.4 2.9 16.6 11.3 20 18.3 3.4 7.1 4.3 10.3 4.6 16.6l.3 5.3-18.4-.1c-10.1-.1-21.6-.1-25.6-.1l-7.4.1.7 6.1c.4 3.3 1.4 8.3 2.3 11.2l1.7 5.1 17.2.1c16.6 0 17.2.1 15 1.7-7 5.4-25.8 7.9-33.9 4.5-2.6-1.1-3.5-1.2-3.2-.3.6 1.6 5.4 4.4 11.7 6.7l5.2 2-6.5-.6c-8.8-.7-10.3-1-16.3-3.8-12.7-5.9-21.6-19-22.5-33-1.1-18.1 9.2-34 26.1-40.3 8.2-3 20.5-2.8 29 .5z"/></svg>