<svg xmlns="http://www.w3.org/2000/svg" viewBox="0 0 259.34 121.12"><defs><style>.cls-1{fill:#c9d4dd}.cls-2{fill:#91a0ac}.cls-3{fill:#2b3e58}.cls-4{fill:#e4eaef}.cls-5{fill:#3c5272}.cls-6{fill:url(#Безымянный_градиент_8)}</style><linearGradient id="Безымянный_градиент_8" x1="66" x2="66" y1="1409.46" y2="1409.46" gradientTransform="translate(0 -1329.96)" gradientUnits="userSpaceOnUse"><stop offset="0" stop-color="#ff7a7b"/><stop offset=".02" stop-color="#ff7d79"/><stop offset=".2" stop-color="#ff926c"/><stop offset=".41" stop-color="#ffa163"/><stop offset=".64" stop-color="#ffaa5e"/><stop offset=".99" stop-color="#ffad5c"/></linearGradient></defs><g id="Слой_2" data-name="Слой 2"><g id="Слой_1-2" data-name="Слой 1"><path d="M69.49 60H53v.45l.06 1a4.22 4.22 0 0 0 .08 1 5.41 5.41 0 0 0 .08.91 7.52 7.52 0 0 1 .1 1 6.51 6.51 0 0 0 .12 1c0 .34.08.65.13 1l.15 1a2.51 2.51 0 0 0 .08.45v.33a.5.5 0 0 1 0 .12c.07.35.13.7.2 1l.06.32q.1.59.24 1.17a.18.18 0 0 0 0 .07 2.81 2.81 0 0 0 .14.64c0 .21.1.44.16.67s.15.6.22.9a1 1 0 0 1 0 .14c.11.44.24.88.36 1.33v.13c.14.5.3 1 .45 1.49l.3.93c.1.3.15.44.23.65s.2.61.32.91.22.61.33.91h12.44c.17-4.52.25-13.34.24-19.52z" class="cls-1"/><path d="M152.55 63.26v10.49h-7V63.26h-3.93a62 62 0 0 1-7.43 24.14v6.44h11.36V83.35h7v10.49h11.36V63.26zm32.75 31.23c-10 0-17-7-17-15.94s7-15.94 17-15.94 17 7 17 15.94-6.95 15.94-17 15.94zm0-21.19a5.26 5.26 0 1 0 4.78 5.7v-.46a5 5 0 0 0-4.75-5.24zm32.54 10.88c0-2.18-11.79-2.18-11.79-11.79 0-5 4.8-9.83 12.45-9.83 7.86 0 11.79 4.81 11.79 4.81l-4.15 6.55a9.67 9.67 0 0 0-5.68-2.4c-1.09 0-1.75.66-1.75 1.31 0 2.18 11.79 2.18 11.79 11.79 0 5-4.8 9.83-12.45 9.83-9.61 0-13.54-5.24-13.54-5.24l4.15-6.55a11.9 11.9 0 0 0 7.43 2.84c1.1.03 1.75-.62 1.75-1.32zm41.5-20.92v10H251v20.53h-11.32V73.3h-8.3v-10zM154 48.75a11.91 11.91 0 0 0 6.59-10.83c0-6.93-5.41-12.34-13.19-12.34a13.07 13.07 0 0 0-11.2 5.58A62.08 62.08 0 0 1 141.39 49a12.82 12.82 0 0 0 4.49 1s3.21 6.76 10.31 6.76a14 14 0 0 0 3-.34v-6.04a7.42 7.42 0 0 1-2 .34 3.52 3.52 0 0 1-3.19-1.97zM147.36 42a4.07 4.07 0 1 1 3.7-4.41v.34a3.83 3.83 0 0 1-3.57 4.07zm30.77-3.23V26.09h8.79v12.68c0 6.76-4.73 11.5-11.5 11.5s-11.5-4.73-11.5-11.5V26.09h8.79v12.68a2.72 2.72 0 1 0 5.41 0zM199.77 43h10.14v6.76H191V26.09h18.26v6.76h-9.47v1.69h8.78v6.76h-8.79zm21.98 0h10.14v6.76H213V26.09h18.26v6.76h-9.47v1.69h8.8v6.76h-8.8zm21.98-3.72v10.48h-8.79V26.09h9.81l5.75 10.48V26.09h8.79v23.67h-9.81z" class="cls-2"/><path d="M97.14 60a34.55 34.55 0 0 1-7.9 19.46h4.2a60 60 0 0 1-12 17 54.77 54.77 0 0 1-13.89 9.68h-.06q-2.08 1-4.26 1.93h-.08A84.49 84.49 0 0 1 45.46 113q-4.33.74-8.88 1.21a62.56 62.56 0 0 0 51.17.27l.51-.33.37-.24.59-.41c.49-.34 1-.69 1.44-1.06l.25-.2.54-.43.71-.59.49-.43.32-.28.57-.53 1.22-1.19.44-.45.47-.5q1-1.07 2-2.26l.55-.7c.21-.27.42-.54.62-.82.14 1.33.27 2.6.39 3.82a63.08 63.08 0 0 0 17.66-19.71V60z" class="cls-3"/><path d="M106 69.48c-2.83 8.39-10.17 16-20.34 19.91-.44.17-.87.33-1.31.47a34.5 34.5 0 0 1-24-.16A24.66 24.66 0 0 1 51 83.28c7.66 4.06 18 4.67 27.86.87q1.48-.57 2.87-1.24a34.52 34.52 0 0 0 15.76-14.65c.18-.34.35-.68.51-1a23.15 23.15 0 0 0 1.71-16.42 34 34 0 0 0-1.44-6.3 21.61 21.61 0 0 1 7.57 9.75 22.16 22.16 0 0 1 .16 15.19z" class="cls-1"/><path d="M112.7 55v.32a42.77 42.77 0 0 1-.31 4.68H97.14c.08-.89.11-1.79.11-2.69a34.32 34.32 0 0 0-2.77-13.59A33.82 33.82 0 0 0 91.4 38a34.88 34.88 0 0 0-15.06-12.53 34 34 0 0 0-4.67-1.65 34.75 34.75 0 1 0-4.68 68 4.48 4.48 0 0 0 .88-.14 34.69 34.69 0 0 0 21.38-12.15h4.2c-.18.37-.36.73-.55 1.09a.76.76 0 0 1-.09.18c-.06.13-.13.25-.2.38l-.17.33c-.25.48-.51 1-.78 1.43l-.15.27c-.15.28-.31.56-.48.83l-.2.35-.41.67-.26.43c-.11.18-.22.36-.34.53s-.21.33-.32.5-.27.42-.41.62v.07c-.18.28-.36.55-.55.82l-.07.1a.09.09 0 0 1 0 .05c-.19.28-.39.57-.6.84s-.23.33-.35.49c-.32.43-.64.86-1 1.28l-.46.57-.06.07c-.29.37-.58.73-.89 1.08-.06.07-.12.15-.19.22s-.29.34-.44.5c-.32.38-.66.75-1 1.11l-.22.24c-.28.3-.56.59-.85.88l-.41.44-.43.42-.27.26-.26.24-.42.36c-.25.25-.51.48-.76.71l-1.14 1-.25.21-.58.47h-.09l-.14.12-.25.2-.24.19-.24.18-.33.26-.31.23-.54.4-.34.25-.13.09-.54.38h-.06l-.08.06-.3.2-1.12.76c-.46.29-.92.59-1.39.86a4.18 4.18 0 0 1-.4.24 48.94 48.94 0 0 1-3.7 2h-.07l-1 .51-.26.13a2.92 2.92 0 0 1-.36.17l-.19.08-.18.09-.21.1-.25.11c-.23.1-.45.21-.68.3l-.31.13-.77.32h-.08c-.44.17-.89.33-1.33.48l-1.36.44-1.37.39-1.39.35c-1.4.33-2.84.59-4.3.8l-1.47.18a58.47 58.47 0 0 1-6.58.38h-2.36l-1-.05h-.66a2.69 2.69 0 0 1-.69-.06h-.24l-.6-.05-.6-.07h-.71l-.62-.08a3.2 3.2 0 0 1-.62-.09q-.66-.09-1.32-.21l-.48-.08-.61-.11-.61-.12-.48-.1-1-.21-.24-.06-1.45-.36-1.1-.3-1.08-.46c-.36-.15-.72-.31-1.07-.48q-1.61-.74-3.15-1.56t-3-1.74l-.67-.58A62.44 62.44 0 0 1 0 57.29v-.45a61.92 61.92 0 0 1 2.37-16.66l.21-.72A56.41 56.41 0 0 1 112.77 55z" class="cls-4"/><path d="M89.32.81a64.88 64.88 0 0 1 9 7.54 63.81 63.81 0 0 1 18.83 45.43q0 3.2-.31 6.35v28.14A62.54 62.54 0 0 0 93.43 3q-2-1.16-4.16-2.17z" class="cls-4"/><path d="M141.36 49.06a62.07 62.07 0 0 0-5.19-17.88 12.11 12.11 0 0 0-2 6.76 11.92 11.92 0 0 0 7.19 11.12zm-7.16 14.2V87.4a62 62 0 0 0 7.43-24.14z" class="cls-1"/><path d="M63.55 71.44l-.07-.28a.66.66 0 0 0-.07-.36 1.61 1.61 0 0 0 .14.64z" class="cls-5"/><path d="M63.37 70.8a.66.66 0 0 0 .07.36l.07.28c-.05-.21-.1-.44-.14-.64z"/><path d="M78.49 60.06H62v.45l.06 1a4.22 4.22 0 0 0 .08 1 5.41 5.41 0 0 0 .08.91 7.52 7.52 0 0 1 .1 1 6.51 6.51 0 0 0 .12 1c0 .34.08.65.13 1l.15 1a2.51 2.51 0 0 0 .08.45v.33a.5.5 0 0 1 0 .12c.07.35.13.7.2 1l.06.32q.1.59.24 1.17a.18.18 0 0 0 0 .07 2.81 2.81 0 0 0 .14.64 3 3 0 0 0 .16.67c.06.23.15.6.22.9a1 1 0 0 1 0 .14c.11.44.24.88.36 1.33v.13c.14.5.3 1 .45 1.49l.3.93c.1.3.15.44.23.65s.2.61.32.91.22.61.33.91h27.5c-.58 1.18-1.17 2.33-1.8 3.43-.2.37-.42.73-.63 1.1s-.42.73-.64 1.08l-.26.43c-.11.18-.22.36-.34.53l-.16.26c-.19.29-.37.58-.57.86l-.06.09c-.18.28-.36.55-.55.82l-.07.1c-.68.92-1.34 1.81-2 2.67l-.08.11-.44.53c-.29.37-.56.69-.89 1.08s-.67.77-1 1.14l-.31.34c-.14.16-.28.32-.43.47q-.66.71-1.32 1.35l-.43.43-.27.25-.26.24-.29.27c-.25.25-.51.48-.76.71-.46.41-.92.82-1.39 1.2l-.14.12-.44.36h-.07a7 7 0 0 1-.63.51 1.1 1.1 0 0 1-.25.19l-.33.26-.31.23c-.29.23-.58.45-.88.65a.44.44 0 0 1-.15.1l-.34.25-.25.16-.08.06a55.27 55.27 0 0 1-6.88 4h-.07l-1 .51-.81.38-.4.18-.25.11-1 .44-.76.32h-.2c-.44.17-.87.32-1.32.47s-.89.3-1.34.43a48 48 0 0 1-8.44 1.7c-1.11.13-2.2.18-3.3.28s-2.19.1-3.28.1h-4.78l-1.2-.12-.59-.07h-.14l-1.24-.17-1.32-.21-.48-.08-1.22-.23H34l-1-.22h-.24a7.11 7.11 0 0 1-.72-.18l-.73-.18c-.39-.1-.76-.2-1.15-.32l-1.08-.47c-.36-.15-.71-.33-1.07-.48s-.71-.32-1.06-.49a57.87 57.87 0 0 1-5.13-2.81c1 .85 2 1.66 3 2.45a63.08 63.08 0 0 0 9.59 6c.73.38 1.49.74 2.24 1.08h-.28a66.33 66.33 0 0 0 6.52 2.92 55.85 55.85 0 0 0 26.78 3.44 46 46 0 0 0 10.56-2.41 38.41 38.41 0 0 0 7.6-3.7l.51-.33.26-.18.1-.07.6-.41c.44-.34 1-.69 1.44-1.06l.24-.19c.19-.14.37-.29.54-.43l.71-.59.49-.43.32-.28.29-.26.28-.26.4-.39.81-.79.21-.23.22-.23a2.75 2.75 0 0 0 .24-.25l.23-.25c.35-.36.64-.72 1-1.1s.68-.76 1-1.15l.55-.7c.11-.13.21-.27.31-.41l.31-.41c.07.67.13 1.31.2 2s.13 1.26.19 1.87a.15.15 0 0 0 0 .07c.34 3.64.67 6.86 1 10.13a.17.17 0 0 1 0 .07 34.86 34.86 0 0 0 16.61-11V60zm14.85 19.48z" class="cls-2"/></g></g></svg>