<svg xmlns="http://www.w3.org/2000/svg" viewBox="0 0 476.3 86.83">
    <defs>
        <style>
            .prefix__cls-1{fill:#1f2639}.prefix__cls-2{fill:#ffe843}
        </style>
    </defs>
    <g id="prefix__Слой_2" data-name="Слой 2">
        <g id="prefix__Слой_1-2" data-name="Слой 1">
            <path d="M73.14 72.15a2.12 2.12 0 010 2.95 2.06 2.06 0 01-1.51.63 2 2 0 01-1.47-.63l-5.76-5.76a24.36 24.36 0 01-16.75 6.39 24.19 24.19 0 01-17.8-7.41 24.19 24.19 0 01-7.41-17.8 24.31 24.31 0 017.41-17.83 24.25 24.25 0 0117.8-7.37 25.17 25.17 0 0125.21 25.2 24.65 24.65 0 01-5.55 15.8zm-25.49-.63a20.34 20.34 0 0013.76-5.16l-5.27-5.27a2.12 2.12 0 010-2.95 2 2 0 011.47-.63 2.06 2.06 0 011.51.63l5.16 5.16a20.87 20.87 0 00-1.78-27.63 20.17 20.17 0 00-14.85-6.18 20.25 20.25 0 00-14.85 6.18 20.23 20.23 0 00-6.14 14.85 21 21 0 0021 21zM119.71 25.5a2.08 2.08 0 011.47.6 2 2 0 01.6 1.47v30.94a17.23 17.23 0 01-29.42 12.18 16.6 16.6 0 01-5.06-12.18V27.58a2 2 0 012.07-2.07 2 2 0 011.44.6 2 2 0 01.6 1.47v30.93a13.11 13.11 0 0022.4 9.27 12.57 12.57 0 003.86-9.27V27.58a2 2 0 01.6-1.47 2 2 0 011.44-.61zM137.37 75.74a2.16 2.16 0 01-2.11-2.11V27.44a2 2 0 01.63-1.47 1.86 1.86 0 011.47-.63l27.88.07a2 2 0 011.47.63 2 2 0 01.63 1.47 2.06 2.06 0 01-.63 1.51 2 2 0 01-1.47.6l-25.77-.07v18.88h19.27a2.11 2.11 0 010 4.21h-19.27v18.89h25.77a2.11 2.11 0 010 4.21zM179.78 75.74a2.16 2.16 0 01-2.11-2.11V27.44a2 2 0 01.63-1.44 1.86 1.86 0 011.47-.63l27.88.07a2 2 0 011.47.63 2 2 0 01.63 1.47 2.06 2.06 0 01-.63 1.51 2 2 0 01-1.47.6l-25.77-.07v18.85h19.27a2.11 2.11 0 010 4.21h-19.26v18.89h25.77a2.11 2.11 0 010 4.21zM256.6 75l-32.2-41.46v40.1a2.11 2.11 0 01-4.21 0V27.4a2.1 2.1 0 013.76-1.3l32.15 41.39V27.4a2 2 0 01.6-1.47 2 2 0 011.47-.63 2.06 2.06 0 011.51.63 2 2 0 01.6 1.47v46.38a.65.65 0 010 .21.57.57 0 010 .18 1.09 1.09 0 01-.07.21 1.36 1.36 0 00-.07.18.44.44 0 01-.1.17l-.11.18a1.21 1.21 0 01-.14.18l-.14.14q-.18.14-.11.07l-.07.07-.11.07a.8.8 0 01-.21.11l-.14.07-.25.07h-.14a2.37 2.37 0 01-.39 0 2.54 2.54 0 01-.42 0h-.14l-.28-.11-.14-.11-.25-.14-.14-.11-.11-.11zM328.08 75.6a2.06 2.06 0 01-1.51-.63 2 2 0 01-.6-1.47V52.57h-28.68v20.92a2 2 0 01-.6 1.47 2.06 2.06 0 01-1.51.63 2.16 2.16 0 01-2.11-2.11V27.4a2.16 2.16 0 012.11-2.11 2.06 2.06 0 011.51.63 2 2 0 01.6 1.47v20.93H326V27.4a2 2 0 01.6-1.47 2.06 2.06 0 011.51-.63 2.16 2.16 0 012.11 2.11v46.1a2.16 2.16 0 01-2.11 2.11zM365.64 75.6a24.25 24.25 0 01-17.8-7.37 24.25 24.25 0 01-7.37-17.8 24.25 24.25 0 017.37-17.8 25.17 25.17 0 0135.6 0 24.25 24.25 0 017.37 17.8 24.25 24.25 0 01-7.37 17.8 24.25 24.25 0 01-17.8 7.37zm0-46.17a20.13 20.13 0 00-14.82 6.18 20.19 20.19 0 00-6.14 14.82 21 21 0 0042 0 20.14 20.14 0 00-6.18-14.82 20.13 20.13 0 00-14.86-6.18zM416.93 52.5q-8.43-.11-12.71-4.67a11.2 11.2 0 01-3.22-8.46 14 14 0 014.81-10 15.41 15.41 0 0110.78-4.11 20.74 20.74 0 019.9 2.32 12.3 12.3 0 016.6 8 2 2 0 01-1.52 2.42 1.88 1.88 0 01-1.58-.21 1.94 1.94 0 01-.95-1.26 8.43 8.43 0 00-4.91-5.53 17 17 0 00-7.55-1.62 11.45 11.45 0 00-7.9 2.95 10 10 0 00-3.51 7.23 7.05 7.05 0 002.11 5.44q3.05 3.27 9.72 3.37a2.1 2.1 0 012.07 2.14 2.1 2.1 0 01-2.11 2zm-9.27 20.82a12.41 12.41 0 01-6.6-8 2.09 2.09 0 01.21-1.58 2.06 2.06 0 011.3-.95 2.09 2.09 0 011.58.21 2.05 2.05 0 01.95 1.26 8.53 8.53 0 004.9 5.58 17.27 17.27 0 007.55 1.58 11.45 11.45 0 007.9-2.95 10 10 0 003.51-7.2 7.1 7.1 0 00-2.11-5.41q-3.05-3.27-9.72-3.37a1.94 1.94 0 01-1.47-.63 2 2 0 01.07-2.95 2 2 0 011.47-.6q8.43.14 12.71 4.71a11 11 0 013.2 8.43 13.87 13.87 0 01-4.78 10 15.42 15.42 0 01-10.78 4.11 21 21 0 01-9.88-2.24zM456.15 29.43h-13.87a2.12 2.12 0 01-1.51-.6 2.12 2.12 0 010-2.95 2.06 2.06 0 011.51-.63h31.92a2.09 2.09 0 011.47 3.58 2 2 0 01-1.47.6h-13.87v44.06a2 2 0 01-2.11 2.11 2.08 2.08 0 01-1.47-.6 2.12 2.12 0 01-.6-1.51z" class="prefix__cls-1"/>
            <path d="M40.17 17.47A37.67 37.67 0 0 0 31 22c-2.55 1.67-4.28 3.09-4.28 3.09a50.31 50.31 0 0 0-9.32 10.4c-.29.46-.55.93-.81 1.39a14.3 14.3 0 0 0-1.16-.88A31.21 31.21 0 0 0 0 30.58s10.8 0 14.87-3.47l.3-.28a7.71 7.71 0 0 0 1.55-2.07 7.79 7.79 0 0 0 .68-4.66 14.74 14.74 0 0 0-.64-2.8c-1.2-3.69-4-8.55-9-15.15 5.6 6.29 9.89 10 13.31 11.82a14.07 14.07 0 0 0 3.07 1.27 7.25 7.25 0 0 0 5.07-.33 8.52 8.52 0 0 0 1.35-.77 7 7 0 0 0 1.48-1.41c3.27-4 5-12.15 5.11-12.73a31.85 31.85 0 0 0 1 12.35c.21.73.42 1.39.62 2a20.77 20.77 0 0 0 1.4 3.12z" class="prefix__cls-2"/>
            <path d="M35.87 21.55c-1.37.72-2.65 1.5-3.77 2.24-2.43 1.59-4.1 2.95-4.1 2.95a53.15 53.15 0 0 0-6.57 6.68 28.33 28.33 0 0 0-3 4.45 16.91 16.91 0 0 1 1.76 1.29c2.92-5.52 9.22-10.71 9.24-10.73s1.58-1.3 3.91-2.82a34.3 34.3 0 0 1 8.4-4.18 16.89 16.89 0 0 1-.92-2 28 28 0 0 0-4.95 2.12z" class="prefix__cls-2"/>
            <path d="M68.67 13H44.59v2h24.08A8.35 8.35 0 0 1 77 23.36v53.13a8.35 8.35 0 0 1-8.34 8.34H27.51a8.35 8.35 0 0 1-8.34-8.34V43.82h-2v32.67a10.35 10.35 0 0 0 10.34 10.34h41.16A10.35 10.35 0 0 0 79 76.49V23.36A10.35 10.35 0 0 0 68.67 13z" style="fill:#b43d50"/>
        </g>
    </g>
</svg>
